<svg width="20" height="20" viewBox="0 0 20 20" fill="none" xmlns="http://www.w3.org/2000/svg">
<path fill-rule="evenodd" clip-rule="evenodd" d="M10 2.75C5.99594 2.75 2.75 5.99594 2.75 10C2.75 14.0041 5.99594 17.25 10 17.25C14.0041 17.25 17.25 14.0041 17.25 10C17.25 5.99594 14.0041 2.75 10 2.75ZM0.75 10C0.75 4.89137 4.89137 0.75 10 0.75C15.1086 0.75 19.25 4.89137 19.25 10C19.25 15.1086 15.1086 19.25 10 19.25C4.89137 19.25 0.75 15.1086 0.75 10Z" fill="#BDF8F9"/>
<path fill-rule="evenodd" clip-rule="evenodd" d="M10 4.1875C10.5523 4.1875 11 4.63522 11 5.1875V9H14.8125C15.3648 9 15.8125 9.44772 15.8125 10C15.8125 10.5523 15.3648 11 14.8125 11H10C9.44772 11 9 10.5523 9 10V5.1875C9 4.63522 9.44772 4.1875 10 4.1875Z" fill="#BDF8F9"/>
</svg>
