<svg width="16" height="20" viewBox="0 0 16 20" fill="none" xmlns="http://www.w3.org/2000/svg">
<path fill-rule="evenodd" clip-rule="evenodd" d="M8.13405 6.1875C7.36277 6.1875 6.60059 6.89221 6.60059 7.9375C6.60059 8.98279 7.36277 9.6875 8.13405 9.6875C8.90533 9.6875 9.66751 8.98279 9.66751 7.9375C9.66751 6.89221 8.90533 6.1875 8.13405 6.1875ZM4.60059 7.9375C4.60059 5.94523 6.10694 4.1875 8.13405 4.1875C10.1612 4.1875 11.6675 5.94523 11.6675 7.9375C11.6675 9.92977 10.1612 11.6875 8.13405 11.6875C6.10694 11.6875 4.60059 9.92977 4.60059 7.9375Z" fill="#BDF8F9"/>
<path fill-rule="evenodd" clip-rule="evenodd" d="M8.13347 2.0625C6.74659 2.0625 5.39814 2.65978 4.39036 3.7537C3.38004 4.85037 2.7998 6.35409 2.7998 7.9375C2.7998 10.6989 4.22208 13.2289 5.74709 15.1326C6.50031 16.0728 7.25546 16.8312 7.82194 17.3539C7.93391 17.4572 8.03826 17.5511 8.13346 17.6351C8.22867 17.5511 8.33302 17.4572 8.44499 17.3539C9.01147 16.8312 9.76662 16.0728 10.5198 15.1326C12.0449 13.2289 13.4671 10.6989 13.4671 7.9375C13.4671 6.35409 12.8869 4.85037 11.8766 3.7537C10.8688 2.65978 9.52034 2.0625 8.13347 2.0625ZM8.13347 18.9375C7.52847 19.7337 7.5282 19.7335 7.52791 19.7333L7.52538 19.7314L7.51999 19.7272L7.50244 19.7137C7.48778 19.7023 7.46726 19.6863 7.44128 19.6657C7.38933 19.6245 7.31547 19.5651 7.22283 19.4883C7.03763 19.3346 6.77687 19.1109 6.46572 18.8238C5.84464 18.2508 5.01637 17.4193 4.18618 16.383C2.54436 14.3336 0.799805 11.3636 0.799805 7.9375C0.799805 5.87418 1.55416 3.88054 2.91942 2.39858C4.28722 0.913875 6.16076 0.0625 8.13347 0.0625C10.1062 0.0625 11.9797 0.913875 13.3475 2.39858C14.7128 3.88054 15.4671 5.87418 15.4671 7.9375C15.4671 11.3636 13.7226 14.3336 12.0807 16.383C11.2506 17.4193 10.4223 18.2508 9.80121 18.8238C9.49007 19.1109 9.2293 19.3346 9.04411 19.4883C8.95147 19.5651 8.8776 19.6245 8.82565 19.6657C8.79967 19.6863 8.77915 19.7023 8.7645 19.7137L8.74695 19.7272L8.74155 19.7314L8.73972 19.7328C8.73943 19.733 8.73846 19.7337 8.13347 18.9375ZM8.13347 18.9375L8.73846 19.7337C8.38089 20.0054 7.88549 20.005 7.52791 19.7333L8.13347 18.9375Z" fill="#BDF8F9"/>
</svg>
